# xmcd
#
# Track frame offsets:
#	150
#	9251
#	25080
#	35287
#	49063
#	62720
#	69629
#	78077
#	97118
#	105040
#	116173
#	129124
#	140734
#	150294
#	164884
#	176959
#	195086
#	208198
#	213785
#	225651
#	235051
#	248657
#	256636
#	266462
#	281659
#	291610
#	309926
#	317931
#	327399
#	336691
#	343538
#
# Disc length: 4677 seconds
#
# Revision: 1
# Processed by: cddbd v1.4PL0 Copyright (c) Steve Scherf et al.
# Submitted via: audiograbber 1.80
#
DISCID=ba12431f
DTITLE=sons of the pioneers - memories of the range the standard transcriptions
DTITLE=disc 3
DYEAR=1900
DGENRE=
TTITLE0=travelin' with the sun 1935
TTITLE1=roll on (cowboy's dream) 1935
TTITLE2=old time religion 1935
TTITLE3=florine waltz 1935
TTITLE4=swanee river 1935
TTITLE5=waggoner 1935
TTITLE6=big rock candy mountain 1935
TTITLE7=little old sod shanty 1935
TTITLE8=keep a-inchin'along 1935
TTITLE9=gambler's blues 1935
TTITLE10=down the lane to happiness 1935
TTITLE11=coming through the rye 1935
TTITLE12=ninety and nine 1935
TTITLE13=tom bigbee river 1935
TTITLE14=old cherry orchard (down in the old cherry orchard) 1935
TTITLE15=jesse james 1935
TTITLE16=when the bees are in the hive 1935
TTITLE17=hifalutin' 1935
TTITLE18=rosewood casket (little rosewood casket) 1935
TTITLE19=bum song (hallelujah, i'm a bum) 1935
TTITLE20=call of the south (come on home) 1935
TTITLE21=song of the pioneers 1935
TTITLE22=utah trail 1935
TTITLE23=the crawdad song 1935
TTITLE24=old black mountain trail 1935
TTITLE25=old kentucky home (my old kentucky home) 1935
TTITLE26=get away old man (get away old man, get away) 1935
TTITLE27=eighth of january 1935
TTITLE28=jack of diamonds 1935
TTITLE29=bugler's blues 1935
TTITLE30=fine time at our house 1935
EXTD=
EXTT0=
EXTT1=
EXTT2=
EXTT3=
EXTT4=
EXTT5=
EXTT6=
EXTT7=
EXTT8=
EXTT9=
EXTT10=
EXTT11=
EXTT12=
EXTT13=
EXTT14=
EXTT15=
EXTT16=
EXTT17=
EXTT18=
EXTT19=
EXTT20=
EXTT21=
EXTT22=
EXTT23=
EXTT24=
EXTT25=
EXTT26=
EXTT27=
EXTT28=
EXTT29=
EXTT30=
PLAYORDER=
